# xmcd CD database file
#
# Track frame offsets:
#	150
#	12157
#	37147
#	89372
#	116134
#	141239
#	160564
#	184205
#	201679
#
# Disc length: 2923 seconds
#
# Revision: 2
# Processed by: cddbd v1.5.2PL0 Copyright (c) Steve Scherf et al.
# Submitted via: CDex 1.51
#
DISCID=800b6909
DTITLE=Bushman's Revenge - Cowboy Misic
DYEAR=2007
DGENRE=Jazz
TTITLE0=Son of a Bushman
TTITLE1=Bad Feng Shui
TTITLE2=Mary all you can
TTITLE3=Little Green Fingers
TTITLE4=Hymne
TTITLE5=Oslo på 123
TTITLE6=Supersonic Macho Blues
TTITLE7=The Esoteric Appeal
TTITLE8=Skoleslutt
EXTD=YEAR: 2007
EXTT0=
EXTT1=
EXTT2=
EXTT3=
EXTT4=
EXTT5=
EXTT6=
EXTT7=
EXTT8=
PLAYORDER=
